<svg width="73" height="71" viewBox="0 0 73 71" fill="none" xmlns="http://www.w3.org/2000/svg">
<path d="M57.4235 19.5668L56.8003 19.3738C56.5917 19.3111 56.3802 19.2532 56.1678 19.1915C55.9553 19.1298 55.7491 19.0685 55.539 19.0082L54.9009 18.8355C54.049 18.6035 53.1909 18.3712 52.3405 18.1145C51.4912 17.8633 50.6582 17.5603 49.8464 17.2071C49.4411 17.0277 49.0424 16.8425 48.6539 16.6342C48.463 16.524 48.2695 16.4186 48.0731 16.3181L47.7869 16.1529L47.5006 15.9876C47.3098 15.8774 47.119 15.7673 46.9379 15.6403C46.7569 15.5133 46.5702 15.3959 46.3901 15.2726C46.21 15.1494 46.0266 15.021 45.8455 14.894C45.6644 14.767 45.4912 14.6318 45.3167 14.4989C45.1422 14.366 44.968 14.227 44.7949 14.0917L44.2842 13.6653C43.9449 13.3828 43.6148 13.0896 43.289 12.7891C42.6359 12.1907 42.0025 11.5747 41.3739 10.9615C41.057 10.6566 40.748 10.3435 40.4297 10.041L40.1995 9.81181L39.9796 9.61427L39.8671 9.51722C39.8266 9.49381 39.7836 9.46903 39.749 9.4298L39.5091 9.25598C39.1741 9.03858 38.8124 8.86535 38.4329 8.7405C38.2426 8.67579 38.048 8.62454 37.8504 8.58712C37.8019 8.57464 37.7524 8.56644 37.7024 8.56261L37.5516 8.54291C37.4525 8.52616 37.3524 8.51554 37.2519 8.51109L36.9412 8.49853C36.8919 8.49574 36.8422 8.49915 36.7901 8.50119L36.6411 8.51141C36.4396 8.52761 36.2391 8.55655 36.0409 8.59806C35.6481 8.67788 35.2672 8.80972 34.9082 8.99011C34.7297 9.07788 34.5573 9.17774 34.3922 9.289C34.35 9.31436 34.3094 9.34237 34.2707 9.37284L34.1535 9.46562L34.0353 9.55462L33.9781 9.5986L33.9253 9.65153C33.7793 9.78866 33.6493 9.9093 33.4866 10.0753L33.0222 10.5548C32.4054 11.1934 31.7903 11.8457 31.1541 12.4795C30.5178 13.1133 29.8677 13.7326 29.1819 14.3089C29.0129 14.4584 28.8386 14.5952 28.6628 14.7344C28.4871 14.8735 28.3127 15.0103 28.1335 15.1443C27.7777 15.4137 27.4092 15.6663 27.0494 15.9206C25.5543 16.9017 23.9477 17.698 22.2647 18.292C21.422 18.5948 20.564 18.847 19.6986 19.079C19.265 19.1912 18.837 19.3099 18.4014 19.4146L17.1077 19.7329C16.8929 19.7854 16.6792 19.8417 16.4654 19.898C16.3536 19.9264 16.2677 19.9539 16.172 19.982C16.0762 20.0102 15.9819 20.0359 15.8871 20.0678L15.6116 20.1815L15.4731 20.2395L15.3415 20.3079L15.0763 20.4532L14.8205 20.6264L14.6952 20.7113L14.579 20.8078L14.347 20.9948L14.1292 21.2123L14.0222 21.3206L13.9243 21.4406L13.7299 21.6781L13.5665 21.9335L13.4901 22.0659L13.4123 22.2006L13.2581 22.4677L13.1386 22.7517L13.0789 22.8937L13.0311 23.0426L12.9407 23.3369L12.8852 23.6258L12.8559 23.7757L12.8375 23.9287L12.8059 24.2314L12.7982 24.5477L12.802 24.7008C12.8037 24.7531 12.8104 24.8019 12.8158 24.8531L12.8425 25.1541C12.8546 25.2542 12.8805 25.3525 12.8965 25.4516C12.9316 25.6387 12.9808 25.8564 13.0375 26.0721L13.359 27.355C13.4654 27.7822 13.5765 28.2122 13.6777 28.6428L13.8319 29.2901C13.8848 29.5068 13.9293 29.7218 13.9785 29.9395C14.0745 30.3736 14.163 30.8097 14.234 31.2486C14.2709 31.4656 14.303 31.6799 14.3443 31.9059L14.4309 32.5655C14.6354 34.3272 14.6598 36.1067 14.5037 37.8761C14.3416 39.6487 14.0421 41.4068 13.608 43.1346L13.2861 44.4247L13.1192 45.0664L13.045 45.3765C13.0185 45.4831 12.9868 45.5932 12.9685 45.6853C12.7681 46.4677 12.7619 47.2862 12.9505 48.0686L12.9856 48.2172C12.9946 48.268 13.0084 48.3179 13.0268 48.3661L13.1257 48.6574C13.1588 48.7545 13.1973 48.8496 13.2411 48.9423L13.3026 49.0836C13.3211 49.1322 13.3442 49.1789 13.3716 49.223C13.4697 49.4043 13.5828 49.5769 13.7097 49.739C13.7406 49.7793 13.77 49.822 13.8032 49.8636C13.8338 49.9054 13.8672 49.9451 13.9032 49.9823C13.9728 50.0546 14.0434 50.1306 14.1167 50.2018C14.189 50.2753 14.267 50.3428 14.3499 50.4038L14.4656 50.5284C14.5072 50.5573 14.5511 50.5826 14.5968 50.6041C14.7662 50.718 14.9431 50.8201 15.1263 50.9099C15.2122 50.9594 15.3004 51.0104 15.396 51.0431L15.6745 51.1557C15.7174 51.1805 15.7603 51.2053 15.8144 51.2108L15.9561 51.2574L16.2144 51.3552L16.8404 51.5433L17.473 51.7256C17.8927 51.8525 18.3152 51.9745 18.7391 52.094C19.163 52.2136 19.5888 52.3408 20.0219 52.4721L20.6506 52.6554C20.8627 52.7233 21.0751 52.785 21.283 52.8601C22.1239 53.1358 22.9487 53.4578 23.7537 53.8245C24.151 54.0122 24.5521 54.1988 24.9379 54.4119C25.1287 54.5221 25.3195 54.6323 25.5103 54.7424L25.7942 54.9063L26.0804 55.0716C27.5857 55.9956 29.0039 57.055 30.3176 58.2367C30.6504 58.5251 30.9725 58.8265 31.2997 59.1245C31.627 59.4226 31.9415 59.7261 32.2622 60.0299C32.5828 60.3338 32.8936 60.6383 33.2146 60.936L33.4556 61.1521C33.527 61.2158 33.5969 61.2819 33.6649 61.3404L33.7751 61.4361C33.8156 61.4595 33.8585 61.4843 33.8907 61.5221L34.1273 61.6908C34.455 61.9056 34.8088 62.0775 35.1803 62.2024C35.3659 62.2674 35.556 62.3192 35.749 62.3575C35.797 62.3708 35.8461 62.3798 35.8957 62.3845L36.0403 62.4038C36.1383 62.4227 36.2375 62.435 36.3372 62.4404L36.6438 62.4602C36.6941 62.4624 36.7446 62.4615 36.7948 62.4576L36.941 62.4521C37.1347 62.4398 37.3275 62.415 37.5182 62.3779C38.1065 62.2723 38.6717 62.0604 39.1862 61.7526C39.2295 61.7283 39.271 61.7007 39.3102 61.6702L39.4317 61.5863L39.5509 61.5011L39.6105 61.4585L39.6667 61.4107C39.8194 61.2839 39.9566 61.1674 40.1236 61.0104C40.2906 60.8533 40.4503 60.7145 40.6084 60.5619C41.2494 59.9693 41.8995 59.35 42.56 58.7623C43.8685 57.5588 45.2737 56.4661 46.7612 55.4957C48.2506 54.5338 49.8269 53.7162 51.4687 53.0541C52.2959 52.7231 53.1259 52.4257 53.9669 52.1477C54.808 51.8696 55.6517 51.6091 56.4851 51.3555C56.6969 51.2916 56.9029 51.2213 57.1136 51.1536C57.2221 51.12 57.3069 51.0888 57.4017 51.0568C57.4964 51.0249 57.585 50.9926 57.674 50.9542L57.9404 50.8288C57.9851 50.8065 58.0308 50.7879 58.0731 50.7642L58.2028 50.6883L58.456 50.5361L58.6975 50.3547L58.8181 50.2671L58.9295 50.1677L59.1471 49.9725L59.3503 49.7529L59.4549 49.6433L59.5453 49.5253L59.7273 49.2871L59.8774 49.0272L59.9524 48.8973L60.0274 48.7673L60.1538 48.5098L60.2643 48.2303L60.3189 48.0917L60.3601 47.9487L60.4347 47.6709C60.4557 47.5739 60.4719 47.4742 60.4877 47.3806L60.5157 47.2331L60.5299 47.0873L60.5591 46.7833C60.5616 46.6853 60.558 46.5869 60.5567 46.49L60.5563 46.3421C60.5542 46.296 60.5451 46.2458 60.5421 46.1959L60.5085 45.907C60.4959 45.8131 60.471 45.7185 60.4523 45.6243C60.4336 45.53 60.4144 45.442 60.3846 45.3285L60.3071 45.011C60.2565 44.7957 60.1983 44.5824 60.144 44.3682L59.9785 43.7239C59.8697 43.2954 59.7586 42.8654 59.6588 42.4324L59.5036 41.7813C59.4544 41.5635 59.4113 41.3462 59.3645 41.1298C59.2699 40.6933 59.1814 40.2572 59.1142 39.8173C59.0787 39.5979 59.0466 39.3836 59.0077 39.159L58.9357 38.5014C58.7392 36.7339 58.7189 34.9497 58.8751 33.1753C59.0322 31.4019 59.331 29.643 59.7684 27.9155L60.0955 26.6219L60.4347 25.3514C60.6392 24.5953 60.6607 23.8024 60.4976 23.039L60.465 22.8918C60.4566 22.8422 60.4444 22.7933 60.4285 22.7456L60.3391 22.4598C60.3095 22.3624 60.2695 22.272 60.2309 22.1791L60.1718 22.0391C60.1544 21.992 60.1342 21.946 60.1113 21.9015C60.0223 21.7184 59.9216 21.5413 59.8099 21.3713L59.7264 21.2461C59.7006 21.201 59.6711 21.1582 59.6381 21.1181L59.4538 20.8866C59.3905 20.8066 59.3209 20.732 59.2454 20.6636L59.1361 20.5555C59.1006 20.5191 59.0631 20.4847 59.024 20.4523C58.868 20.3202 58.7025 20.2 58.5288 20.0926L58.3976 20.0169C58.3545 19.9888 58.3099 19.963 58.264 19.9398L57.9906 19.8075C57.9452 19.7846 57.8986 19.7641 57.851 19.7462L57.7097 19.6935L57.4235 19.5668ZM57.6604 18.9912C58.074 19.1578 58.4692 19.3667 58.8399 19.6144C59.0276 19.736 59.2082 19.8681 59.3809 20.0102C59.4286 20.0378 59.4652 20.0846 59.5074 20.1217L59.6286 20.2367C59.7133 20.3112 59.7941 20.39 59.8708 20.4727L60.0961 20.7215C60.1336 20.7634 60.1688 20.8072 60.2015 20.853L60.3017 20.9878C60.4372 21.1675 60.5627 21.3546 60.6777 21.5483C60.9006 21.9388 61.0807 22.3526 61.215 22.7825C61.4859 23.6427 61.5647 24.5536 61.4459 25.4507C61.4374 25.5645 61.4184 25.6691 61.4041 25.7764L61.3553 26.0979L61.2637 26.7413C61.2029 27.1715 61.1521 27.601 61.0952 28.0301L60.9523 29.3242L60.8388 30.6223C60.8089 31.0543 60.7704 31.4845 60.7452 31.9191L60.7101 32.5694C60.7 32.7851 60.6863 33.0017 60.6787 33.2187C60.6106 34.9506 60.6102 36.6863 60.6894 38.4165L60.7144 39.0727L60.7573 39.72L60.8026 40.3686L60.8578 41.0165C60.8776 41.2301 60.8923 41.4471 60.9145 41.6621L60.981 42.307C61.0216 42.7379 61.0745 43.1695 61.1264 43.5974C61.1784 44.0252 61.235 44.4558 61.2931 44.884C61.3215 45.0993 61.3635 45.3129 61.3754 45.5347C61.3844 45.6458 61.3996 45.7573 61.4034 45.8718L61.4147 46.1992C61.4136 46.2563 61.4162 46.3123 61.4126 46.368L61.402 46.5352L61.3756 46.8729L61.3259 47.2068L61.2992 47.3742L61.2592 47.5372L61.1777 47.8656L61.072 48.1864L61.0196 48.3487L60.953 48.5027L60.8206 48.8146L60.6525 49.1058L60.5678 49.2526L60.483 49.3994L60.3135 49.693L60.1096 49.9635L60.0072 50.0969L59.8966 50.2223L59.6583 50.4698L59.416 50.7021L59.2911 50.8193L59.1608 50.9238L58.8951 51.1362L58.6173 51.3255L58.4778 51.4182C58.4314 51.4492 58.3815 51.4749 58.3303 51.5031L58.0434 51.6584C57.9437 51.7099 57.8396 51.7525 57.7375 51.8026C57.6354 51.8528 57.5313 51.8954 57.4269 51.9441L56.8278 52.1886C55.2232 52.8452 53.6457 53.558 52.095 54.3269C48.9935 55.8758 46.0299 57.6915 43.2376 59.7535C42.8886 60.0109 42.5387 60.2645 42.1941 60.5308C41.8495 60.7972 41.5044 61.0535 41.1656 61.3264L40.6566 61.7288C40.4921 61.8648 40.3044 61.9971 40.1229 62.1298L40.053 62.1793L39.9948 62.2195L39.8482 62.3081L39.703 62.3943L39.6321 62.44L39.5568 62.4768C38.956 62.7932 38.3094 63.0113 37.6414 63.1228C37.4181 63.1588 37.1929 63.1809 36.9671 63.1892L36.7996 63.1983C36.7433 63.2039 36.6865 63.2044 36.6301 63.2L36.2934 63.1884C36.1797 63.187 36.0696 63.1683 35.9591 63.1559L35.8014 63.1482C35.7453 63.144 35.6896 63.1354 35.6348 63.1227C35.406 63.081 35.18 63.0255 34.958 62.9565C34.5299 62.8342 34.1169 62.6646 33.7266 62.4509L33.438 62.2843C33.3879 62.2553 33.3402 62.2278 33.2925 62.2003L33.1553 62.1018L32.8848 61.9039L32.6349 61.6923L32.1274 61.2934L31.873 61.0951L31.6116 60.9089C31.2669 60.6522 30.9277 60.3858 30.5789 60.1362C30.23 59.8867 29.8881 59.6251 29.5355 59.3766C28.1339 58.3781 26.6942 57.4346 25.2094 56.5581C23.7247 55.6816 22.2224 54.8464 20.674 54.0967C19.1255 53.3471 17.5437 52.6553 15.9408 52.0219L15.6389 51.8893L15.4875 51.8211C15.4398 51.7935 15.3921 51.766 15.3444 51.7385L15.0558 51.5718C14.9604 51.5168 14.865 51.4617 14.7672 51.4052C14.5788 51.2867 14.398 51.1566 14.2257 51.0156C14.178 50.988 14.14 50.9437 14.0979 50.9065L13.9752 50.794C13.8905 50.7215 13.8096 50.6448 13.7327 50.5641L13.5036 50.3163C13.4653 50.2781 13.4325 50.2303 13.3969 50.1873L13.2953 50.0548C13.1587 49.8759 13.0331 49.6887 12.9192 49.4944C12.6955 49.1056 12.5145 48.6934 12.3792 48.2649C12.106 47.4061 12.0267 46.4956 12.1469 45.5992C12.1577 45.4867 12.1768 45.3822 12.1924 45.2725L12.2375 44.952L12.3259 44.3196C12.3853 43.8918 12.4375 43.4599 12.4944 43.0308L12.6359 41.7391L12.7494 40.441C12.7807 40.0066 12.8192 39.5764 12.8444 39.1417L12.8781 38.4939C12.8919 38.2772 12.9033 38.0592 12.9095 37.8446C12.9753 36.1113 12.9718 34.3767 12.8804 32.6457L12.8529 31.9882C12.8407 31.7725 12.8223 31.5566 12.8076 31.3395L12.7586 30.6919L12.6958 30.046C12.6774 29.8301 12.659 29.6141 12.6368 29.3991L12.5641 28.7539C12.5221 28.3254 12.4654 27.8948 12.4111 27.4655C12.3568 27.0363 12.2949 26.6092 12.2355 26.1834C12.2047 25.9667 12.1637 25.7569 12.1484 25.5299C12.1371 25.4174 12.1219 25.306 12.118 25.1915L12.1043 24.8627L12.104 24.6925L12.116 24.5229C12.1231 24.4115 12.1292 24.2963 12.1401 24.1838L12.1888 23.8462L12.2155 23.6787L12.2601 23.5023L12.3501 23.1756L12.4562 22.8486L12.5109 22.6877L12.5766 22.5299L12.7103 22.2157L12.8621 21.9087L12.9483 21.7594L13.0275 21.6223L13.2103 21.3332L13.418 21.0616L13.5194 20.9244L13.6338 20.798L13.8615 20.5412L14.1121 20.2944L14.237 20.1772L14.3687 20.0704L14.6368 19.8594L14.9184 19.669L15.0593 19.5738L15.2092 19.4904L15.5054 19.3244C15.6051 19.2729 15.7106 19.2279 15.8137 19.1815C15.9168 19.1352 16.0222 19.0902 16.1267 19.0414L16.7292 18.8021C18.3323 18.1554 19.9133 17.4531 21.4723 16.6954C24.5828 15.1642 27.5511 13.3544 30.3409 11.2881C30.6898 11.0307 31.0398 10.7771 31.3806 10.5118C31.7214 10.2465 32.0717 9.98675 32.4091 9.7163L32.9195 9.31149C33.0839 9.1754 33.2692 9.04174 33.4508 8.9091L33.5207 8.85962L33.5926 8.8177L33.7368 8.72769L33.882 8.64146L33.9553 8.59714L34.0282 8.55901C34.2274 8.45176 34.4325 8.3559 34.6423 8.27187C35.0617 8.1041 35.4977 7.98248 35.9426 7.90915C36.1665 7.87432 36.3921 7.85139 36.6183 7.84044L36.7858 7.83125C36.8426 7.83198 36.8998 7.82651 36.9553 7.82964L37.2907 7.84359C37.4039 7.84665 37.5168 7.85718 37.6286 7.8751L37.7956 7.89445C37.8515 7.89991 37.9071 7.90844 37.9621 7.92C38.1833 7.95881 38.4022 8.01015 38.6175 8.07378C39.05 8.19745 39.467 8.36934 39.8608 8.58627L40.1518 8.75427C40.1995 8.78181 40.2472 8.80935 40.2973 8.83827L40.4321 8.93533L40.705 9.13462L40.958 9.33527L41.4632 9.73279L41.7117 9.94685L41.9689 10.1403C42.3122 10.3994 42.6527 10.6634 43.0002 10.9154C43.3476 11.1673 43.6947 11.4255 44.0487 11.6716C45.4479 12.6687 46.8914 13.6112 48.3724 14.4887C49.8534 15.3662 51.3719 16.1788 52.9255 16.9249C54.4792 17.6711 56.0586 18.3616 57.6604 18.9912Z" fill="url(#paint0_linear_166_4583)"/>
<path d="M53.4224 37.645L53.2263 37.2687C53.1602 37.1407 53.0914 37.0175 53.024 36.892L52.8203 36.5177L52.6166 36.1434C52.3356 35.6442 52.0497 35.1423 51.778 34.6324C51.5076 34.1233 51.2668 33.5986 51.057 33.061C50.9555 32.7907 50.8602 32.5206 50.772 32.2547C50.73 32.1182 50.6894 31.9792 50.6511 31.8416L50.6232 31.7357L50.5977 31.6311L50.5454 31.4244C50.5147 31.2848 50.4792 31.1424 50.4509 31.0041C50.4226 30.8658 50.3923 30.72 50.375 30.5848C50.3576 30.4497 50.3239 30.2987 50.3018 30.1608C50.2797 30.0228 50.2607 29.8739 50.2342 29.7271L50.1679 29.2909L50.1311 28.859C50.1061 28.5718 50.0887 28.2826 50.0797 27.9951C50.0547 27.4159 50.0468 26.8402 50.0413 26.2659C50.0362 25.9773 50.0515 25.6974 50.0317 25.4068L50.0256 25.1915L50.0155 24.9996L50.0105 24.9037C50.0077 24.8699 49.9997 24.8397 49.9955 24.8084L49.9656 24.6178C49.9125 24.3619 49.8268 24.114 49.7109 23.8803C49.6536 23.7626 49.5886 23.649 49.5161 23.5401C49.4997 23.5124 49.4807 23.4864 49.4593 23.4624L49.4 23.3832C49.3625 23.3301 49.3215 23.2797 49.2773 23.2322L49.1443 23.088C49.1157 23.0715 49.0978 23.0419 49.0733 23.0181L48.9996 22.9531C48.7071 22.6944 48.3657 22.4973 47.9954 22.3733C47.8739 22.3318 47.7496 22.2987 47.6234 22.2741C47.5921 22.266 47.5602 22.2605 47.528 22.2575L47.4336 22.2447L47.3416 22.2333L47.2937 22.2281L47.2445 22.2254C47.1161 22.2218 47.0001 22.219 46.8515 22.2231C46.7028 22.2271 46.5645 22.2243 46.4221 22.2286C45.8465 22.2396 45.2705 22.2568 44.6919 22.2565C44.1133 22.2561 43.5317 22.2444 42.9563 22.1946C42.8122 22.1852 42.6685 22.1696 42.5263 22.1517L42.0957 22.0988C41.8044 22.0525 41.5172 21.999 41.2329 21.9408C40.1041 21.7096 39.0087 21.3412 37.9706 20.8434C37.4485 20.5965 36.9397 20.3156 36.4426 20.0254C36.1898 19.8794 35.9417 19.7362 35.6913 19.5916L34.9545 19.1438C34.8304 19.0721 34.7159 19.006 34.5848 18.9303C34.5204 18.8931 34.4703 18.8642 34.413 18.8312C34.3558 18.7981 34.3033 18.7678 34.2461 18.7348C34.1888 18.7017 34.1294 18.6835 34.0704 18.659C34.0113 18.6345 34.0155 18.6273 33.9869 18.6108L33.8947 18.5832L33.7079 18.5267C33.6457 18.5133 33.5821 18.5022 33.5175 18.4874L33.4197 18.4695L33.3226 18.4615L33.1272 18.4418L32.9293 18.443L32.8304 18.4437L32.7297 18.4529L32.533 18.4741L32.3389 18.5128L32.2411 18.5334L32.1454 18.5615L31.9549 18.6216L31.7683 18.6968L31.6756 18.7363L31.5886 18.7823L31.4132 18.8768L31.2466 18.9892L31.1639 19.0441L31.0871 19.1056L30.932 19.2311L30.8099 19.382L30.7398 19.4538C30.7245 19.4803 30.7078 19.5092 30.6768 19.5298L30.551 19.6817C30.519 19.7371 30.4857 19.7948 30.4537 19.8502C30.3912 19.9585 30.3148 20.0908 30.2334 20.2043L29.8026 20.9503C29.6637 21.1909 29.5137 21.4508 29.3705 21.6987L29.1524 22.0765C29.0802 22.2016 29.0135 22.3172 28.9214 22.4437C28.7824 22.6843 28.6085 22.9304 28.4402 23.1669L28.1914 23.5207L27.9284 23.8661C27.2171 24.7748 26.4159 25.6088 25.5372 26.3553C24.655 27.1 23.7167 27.7749 22.7309 28.3737L21.9938 28.8241L21.6226 29.0429L21.4399 29.1556C21.3783 29.1906 21.3153 29.2281 21.2637 29.2625C20.816 29.533 20.4393 29.9077 20.1656 30.3547L20.1156 30.4414C20.0965 30.4688 20.0798 30.4978 20.0655 30.528L19.9655 30.7013C19.9308 30.7614 19.9131 30.825 19.8869 30.8869L19.8512 30.9818C19.8376 31.013 19.8264 31.0452 19.8179 31.0781C19.7771 31.2067 19.7468 31.3384 19.7273 31.4718L19.7149 31.5705C19.7097 31.6037 19.7064 31.6371 19.7048 31.6706L19.7018 31.8742C19.7024 31.9414 19.7072 32.0085 19.7162 32.075L19.726 32.1737C19.7326 32.2064 19.734 32.2425 19.7419 32.2728C19.7669 32.401 19.8002 32.5274 19.8415 32.6511C19.8622 32.7144 19.8805 32.7763 19.9026 32.8372L19.9788 33.0192L20.0164 33.1083L20.0592 33.1939L20.1471 33.3666L20.3457 33.7444L20.5494 34.1187C20.6828 34.3722 20.8191 34.6209 20.9601 34.8724C21.1011 35.1239 21.2322 35.376 21.3681 35.631L21.5366 35.9946C21.6026 36.1225 21.6725 36.2495 21.7333 36.3809C21.9877 36.895 22.2137 37.4229 22.4104 37.9622C22.5058 38.2323 22.6035 38.5037 22.6824 38.7802L22.7994 39.1943L22.8287 39.2979L22.8542 39.4024L22.9052 39.6116C23.1765 40.7306 23.3451 41.873 23.409 43.0244C23.4278 43.3113 23.4391 43.6002 23.4504 43.8891C23.4617 44.1779 23.4627 44.4737 23.4716 44.7612C23.4805 45.0487 23.4809 45.3345 23.4936 45.621L23.4901 45.8308L23.5006 46.0165L23.507 46.11C23.5098 46.1437 23.5178 46.174 23.522 46.2053L23.5509 46.3921C23.6056 46.6407 23.6926 46.8808 23.8096 47.1062C23.865 47.2221 23.9277 47.3343 23.9972 47.4423C24.0142 47.47 24.0327 47.4968 24.0527 47.5224L24.1095 47.6002C24.1458 47.6531 24.186 47.7031 24.2298 47.7499L24.3567 47.8937C24.3829 47.9088 24.4032 47.9398 24.4253 47.9622L24.4967 48.0258C24.5903 48.1141 24.6895 48.196 24.7939 48.2712C25.0044 48.4174 25.2316 48.5379 25.4708 48.63C25.5898 48.6746 25.7112 48.7126 25.8345 48.7437C25.8607 48.7588 25.8967 48.7571 25.9285 48.7627L26.0215 48.7778L26.1131 48.7954L26.1596 48.803L26.218 48.8175C26.346 48.8272 26.4616 48.8362 26.6108 48.8422C26.7601 48.8481 26.8932 48.8544 27.0376 48.8576C27.6107 48.8675 28.1778 48.8933 28.7482 48.9243C29.8886 48.9728 31.0225 49.1145 32.1386 49.348C33.2571 49.5908 34.3493 49.9399 35.4006 50.3906C35.9266 50.6141 36.4436 50.8644 36.9526 51.123C37.4616 51.3816 37.9651 51.6498 38.4685 51.918C38.5901 51.9882 38.714 52.0437 38.8455 52.1132C38.9099 52.1504 38.96 52.1793 39.0149 52.211C39.0697 52.2427 39.1246 52.2744 39.1892 52.2892L39.3657 52.3526C39.3949 52.3649 39.4248 52.3757 39.4551 52.3849L39.5487 52.4101L39.7325 52.4553L39.9223 52.4846L40.0191 52.4988L40.1138 52.5054L40.3062 52.5137L40.5007 52.5073L40.5949 52.5039L40.6922 52.4896L40.8841 52.4656L41.0725 52.4203L41.1678 52.3984L41.2588 52.3675L41.4432 52.3071L41.6188 52.2287L41.7092 52.1879L41.7938 52.1405L41.9616 52.0481L42.1207 51.9378L42.1985 51.88C42.224 51.8613 42.2484 51.8411 42.2716 51.8196L42.4192 51.6962L42.5528 51.5584L42.6177 51.49L42.6769 51.415L42.7952 51.2651C42.8258 51.2122 42.8578 51.1569 42.8897 51.1015L42.987 50.9331L43.3107 50.3723L43.5275 49.9969C43.6664 49.7563 43.8164 49.4964 43.9609 49.2461L44.1791 48.8683C44.2513 48.7431 44.318 48.6276 44.4125 48.5025C44.5515 48.2619 44.7291 48.0147 44.8975 47.7782L45.1524 47.4248L45.4155 47.0793C46.1302 46.1702 46.9325 45.3339 47.8108 44.583C48.6937 43.8337 49.6352 43.1572 50.626 42.5601L51.3679 42.1125L52.1 41.6817C52.5401 41.4261 52.9129 41.0677 53.1864 40.6372L53.235 40.553C53.2536 40.5263 53.2699 40.4982 53.2837 40.4687L53.3823 40.2979C53.4143 40.2425 53.4476 40.1848 53.4605 40.1184L53.4972 40.0273C53.5158 40.0007 53.5321 39.9725 53.5458 39.9431C53.5875 39.8165 53.6225 39.6878 53.6507 39.5576L53.6717 39.4606C53.6784 39.4285 53.6834 39.396 53.6865 39.3633L53.7091 39.1646C53.7166 39.0982 53.7179 39.0313 53.7131 38.9647L53.7146 38.863C53.7154 38.8301 53.7142 38.7973 53.711 38.7646C53.7004 38.6316 53.6798 38.4996 53.6496 38.3698L53.6285 38.2741C53.6217 38.2409 53.6131 38.208 53.6026 38.1758L53.5377 37.9907C53.5279 37.9587 53.5163 37.9274 53.5028 37.8968L53.4629 37.8063L53.4224 37.645ZM53.7935 37.487C53.9058 37.7552 53.9908 38.0343 54.0471 38.3201C54.0776 38.4633 54.1002 38.6081 54.1147 38.7538L54.1214 38.8635L54.1242 38.9743C54.1295 39.047 54.1298 39.1201 54.1251 39.193L54.1161 39.4124L54.1029 39.5235L54.0873 39.6332C54.0661 39.7774 54.0376 39.9206 54.0019 40.062C53.7723 40.9197 53.2686 41.6798 52.5686 42.225C52.5124 42.2727 52.4556 42.3105 52.3984 42.3545L52.232 42.483L51.8944 42.7373L51.2297 43.2552L50.5727 43.7872L49.9368 44.3377C49.7192 44.5329 49.5117 44.7051 49.2982 44.8931L48.986 45.1749L48.6734 45.4629C47.8412 46.2359 47.0481 47.0369 46.294 47.8657L46.0106 48.1802L45.7344 48.4988L45.4592 48.8212L45.1864 49.145L44.9184 49.4716L44.6527 49.7995C44.4756 50.0181 44.3033 50.2395 44.131 50.4609C43.9586 50.6822 43.7911 50.9064 43.6211 51.1291C43.5373 51.2412 43.456 51.3546 43.3622 51.4674L43.2229 51.6372L43.065 51.8059L42.9883 51.8836L42.9045 51.9572L42.7397 52.0994L42.5644 52.2324L42.4762 52.297L42.3822 52.3551L42.1957 52.4688L42.0015 52.5684L41.9031 52.6175L41.8028 52.6591L41.5984 52.7432L41.3914 52.8098L41.2867 52.8424L41.18 52.8675L40.9657 52.9138L40.7497 52.9463L40.6424 52.9614L40.5332 52.9689L40.316 52.9815L40.0962 52.9765L39.9864 52.974L39.8797 52.9606L39.6635 52.9384L39.4485 52.8977L39.3435 52.8756C39.3125 52.8577 39.2718 52.8567 39.239 52.8474L39.0289 52.7871C38.9586 52.7657 38.8924 52.7371 38.8248 52.7109C38.7573 52.6848 38.6883 52.661 38.6245 52.6338L38.2417 52.4705C37.2182 52.04 36.1752 51.6432 35.1128 51.2801C32.9922 50.567 30.8125 50.0407 28.5983 49.7073C28.3084 49.6586 28.0437 49.6213 27.7677 49.5871C27.4917 49.5529 27.2137 49.5111 26.9363 49.4793L26.519 49.4309C26.3839 49.417 26.2263 49.387 26.0926 49.3708L26.0355 49.3539L25.9902 49.3277L25.8843 49.3019L25.7784 49.276L25.7261 49.2619C25.7118 49.2536 25.6951 49.244 25.6739 49.2478C25.535 49.2047 25.3987 49.1539 25.2657 49.0955C24.9984 48.9781 24.7449 48.8317 24.5096 48.659C24.3943 48.5667 24.2891 48.49 24.1712 48.3802L24.0907 48.3048C24.0635 48.2811 24.0379 48.2556 24.014 48.2284L23.866 48.066C23.8172 48.0121 23.7713 47.9556 23.7284 47.8968L23.6596 47.8121C23.6393 47.7811 23.6163 47.755 23.596 47.724C23.5186 47.5991 23.4228 47.4732 23.3677 47.3483C23.2283 47.0922 23.117 46.8214 23.0358 46.5407L22.9838 46.3277C22.9762 46.2913 22.9649 46.2559 22.9597 46.2208L22.9431 46.1118L22.9086 45.8961L22.886 45.6873L22.8361 45.2671L22.8135 45.0583L22.7848 44.8492C22.7467 44.5737 22.7113 44.2934 22.6684 44.0151C22.6256 43.7369 22.5874 43.4614 22.5384 43.1828C22.3482 42.0911 22.121 40.9974 21.8507 39.9012C21.5804 38.805 21.2603 37.7346 20.899 36.6693C20.5377 35.604 20.1365 34.5638 19.6928 33.5311L19.6154 33.3292L19.5762 33.2263C19.5641 33.1932 19.5539 33.1595 19.5455 33.1252L19.4822 32.9154C19.4643 32.8473 19.4516 32.7757 19.435 32.7052C19.3996 32.5628 19.3878 32.418 19.366 32.2739C19.3614 32.2383 19.3588 32.2025 19.358 32.1666L19.3538 32.0583C19.3476 31.9847 19.3457 31.9107 19.3481 31.8368L19.3571 31.6174C19.3592 31.581 19.3632 31.5447 19.3689 31.5087L19.3832 31.4014C19.401 31.2555 19.4292 31.1109 19.4675 30.9689C19.5428 30.6854 19.6489 30.411 19.7842 30.1506C20.0501 29.6259 20.43 29.1674 20.8956 28.8093C20.9518 28.7615 21.0086 28.7237 21.0658 28.6798L21.2323 28.5512L21.5699 28.297L22.2346 27.7791L22.8916 27.2471L23.5274 26.6966C23.7451 26.5014 23.9526 26.3292 24.1647 26.1436L24.4759 25.858C24.5821 25.7621 24.6911 25.6614 24.7885 25.57C25.609 24.7988 26.4007 23.9949 27.1407 23.1483L27.4217 22.8324L27.6969 22.51L27.9707 22.19L28.2401 21.861C28.3286 21.7517 28.4196 21.6438 28.5057 21.5331L28.769 21.2038C28.9461 20.9852 29.1161 20.7624 29.286 20.5397C29.4559 20.3169 29.6235 20.0928 29.7887 19.8673C29.8748 19.7566 29.9539 19.6418 30.049 19.5266L30.1883 19.3568L30.342 19.1953L30.4187 19.1176L30.5025 19.0441L30.6701 18.897L30.8455 18.764L30.9336 18.6994L31.029 18.6389L31.2169 18.5228L31.4149 18.4222L31.5132 18.373L31.6173 18.3305L31.8217 18.2463L32.0301 18.1773L32.1372 18.1461L32.2439 18.1211L32.4596 18.0724L32.678 18.0412L32.7876 18.0275L32.8969 18.02L33.1178 18.0064L33.3376 18.0113L33.4475 18.0138L33.558 18.0262L33.7751 18.0522L33.9925 18.0943L34.1012 18.1153C34.1299 18.1318 34.1692 18.1353 34.2058 18.1436L34.4182 18.2053C34.4848 18.2276 34.5534 18.2576 34.6223 18.2814C34.6913 18.3052 34.7598 18.3351 34.8222 18.3647L35.2074 18.5293C36.2272 18.9663 37.2665 19.3695 38.3252 19.739C40.4418 20.4658 42.621 20.998 44.8362 21.3291C45.1118 21.3695 45.3884 21.4137 45.6668 21.4492C45.9452 21.4848 46.2184 21.5239 46.4972 21.5533L46.9145 21.6017C47.0496 21.6155 47.2072 21.6455 47.3409 21.6618L47.3936 21.6697L47.4389 21.6959L47.5448 21.7217L47.6531 21.749L47.7067 21.7607C47.7212 21.7705 47.7363 21.7793 47.7521 21.7868C47.891 21.8296 48.0273 21.8805 48.1603 21.9391C48.4282 22.0553 48.6818 22.2017 48.9164 22.3756C49.0345 22.4604 49.1467 22.5531 49.2523 22.653L49.3342 22.726C49.3652 22.7439 49.3879 22.7762 49.4134 22.8037L49.5613 22.9662C49.6101 23.0201 49.6561 23.0766 49.6989 23.1354L49.7663 23.2225C49.7895 23.2503 49.8108 23.2797 49.8299 23.3106C49.9127 23.431 49.9894 23.5556 50.0596 23.6838C50.1991 23.94 50.3103 24.2108 50.3915 24.4915L50.4435 24.7044C50.4511 24.7409 50.4625 24.7763 50.4676 24.8114L50.4842 24.9204L50.5187 25.1361L50.5437 25.3462L50.5912 25.7651L50.6176 25.9729L50.6463 26.182C50.683 26.4599 50.716 26.7388 50.7626 27.016C50.8093 27.2932 50.8423 27.5722 50.8927 27.8484C51.077 28.9558 51.3 30.0568 51.5838 31.1351C51.8675 32.2135 52.1794 33.2983 52.5458 34.3602C52.9122 35.422 53.3508 36.4581 53.7935 37.487Z" fill="url(#paint1_linear_166_4583)"/>
<defs>
<linearGradient id="paint0_linear_166_4583" x1="24.3327" y1="57.0273" x2="49.1903" y2="13.9727" gradientUnits="userSpaceOnUse">
<stop stop-color="#FC00FF"/>
<stop offset="1" stop-color="#00DBDE"/>
</linearGradient>
<linearGradient id="paint1_linear_166_4583" x1="27.9744" y1="50.6871" x2="45.4817" y2="20.3637" gradientUnits="userSpaceOnUse">
<stop stop-color="#FC00FF"/>
<stop offset="1" stop-color="#00DBDE"/>
</linearGradient>
</defs>
</svg>
