<?xml version="1.0" standalone="no"?>
<!DOCTYPE svg PUBLIC "-//W3C//DTD SVG 20010904//EN"
 "http://www.w3.org/TR/2001/REC-SVG-20010904/DTD/svg10.dtd">
<svg version="1.0" xmlns="http://www.w3.org/2000/svg"
 width="700.000000pt" height="700.000000pt" viewBox="0 0 700.000000 700.000000"
 preserveAspectRatio="xMidYMid meet">
<metadata>
Created by potrace 1.14, written by Peter Selinger 2001-2017
</metadata>
<g transform="translate(0.000000,700.000000) scale(0.100000,-0.100000)"
fill="#000000" stroke="none">
<path d="M1160 6993 c-240 -38 -405 -100 -587 -222 -201 -135 -372 -343 -468
-568 -47 -113 -73 -210 -95 -353 -11 -73 -11 -4640 0 -4705 17 -102 21 -121
36 -179 76 -296 292 -590 560 -761 107 -69 305 -152 408 -171 17 -3 63 -12
101 -19 57 -11 513 -13 2410 -11 1287 1 2351 5 2365 9 14 4 39 10 55 12 247
44 507 189 698 389 147 153 284 406 322 591 34 169 34 136 34 2495 0 1452 -4
2327 -10 2365 -16 97 -16 99 -39 181 -116 414 -440 752 -850 888 -199 65 21
60 -2570 62 -1290 1 -2356 0 -2370 -3z m4720 -226 c274 -61 481 -183 655 -387
126 -147 211 -352 240 -575 6 -52 6 -4558 0 -4610 -19 -149 -54 -265 -115
-382 -174 -332 -502 -556 -865 -589 -53 -4 -4564 -5 -4590 0 -11 2 -41 6 -66
10 -83 12 -100 16 -184 45 -326 113 -572 365 -684 701 -51 152 -49 55 -50
2515 0 2517 -3 2372 58 2549 37 105 84 198 143 281 22 30 139 163 160 180 92
77 252 173 343 206 91 32 136 44 205 54 25 4 47 9 49 11 8 8 4666 -2 4701 -9z"/>
<path d="M3970 5678 c-54 -9 -96 -34 -132 -79 -31 -38 -39 -62 -247 -694 -97
-295 -383 -1161 -733 -2220 -56 -170 -102 -312 -103 -315 0 -3 -61 -187 -134
-408 -119 -361 -133 -409 -128 -452 7 -59 25 -96 68 -138 53 -51 95 -60 297
-60 157 0 185 3 223 20 52 23 85 52 106 92 12 23 206 599 217 641 1 6 71 219
156 475 84 256 155 470 156 475 2 9 85 262 289 880 60 183 274 832 430 1309
41 126 75 242 75 259 0 83 -58 171 -132 202 -35 15 -74 18 -205 19 -88 1 -180
-2 -203 -6z"/>
</g>
</svg>
